<svg width="430" height="430" viewBox="0 0 430 430" fill="none" xmlns="http://www.w3.org/2000/svg">
<path d="M216.297 343.464C215.496 343.836 214.572 343.836 213.771 343.464L39.7969 262.721C37.4808 261.646 37.4808 258.354 39.7969 257.279L213.771 176.536C214.572 176.165 215.496 176.165 216.297 176.536L390.27 257.279C392.586 258.354 392.586 261.646 390.27 262.721L216.297 343.464Z" fill="#EBE6EF"/>
<g style="mix-blend-mode:multiply" opacity="0.5">
<path d="M57.0957 249.25L213.77 321.964C214.571 322.336 215.495 322.336 216.296 321.964L372.97 249.25L216.296 176.536C215.495 176.165 214.571 176.165 213.77 176.536L57.0957 249.25Z" fill="#EBE6EF"/>
</g>
<path d="M216.228 299.464C215.427 299.836 214.503 299.836 213.702 299.464L39.7286 218.721C37.4125 217.646 37.4125 214.354 39.7286 213.279L213.702 132.536C214.503 132.165 215.427 132.165 216.228 132.536L390.202 213.279C392.518 214.354 392.518 217.646 390.202 218.721L216.228 299.464Z" fill="#08A88A"/>
<g style="mix-blend-mode:multiply" opacity="0.5">
<path d="M57.2969 205.125L213.702 277.714C214.503 278.086 215.427 278.086 216.228 277.714L372.633 205.125L216.228 132.536C215.427 132.165 214.503 132.165 213.702 132.536L57.2969 205.125Z" fill="#08A88A"/>
</g>
<path d="M216.228 254.464C215.427 254.836 214.503 254.836 213.702 254.464L39.7286 173.721C37.4125 172.646 37.4125 169.354 39.7286 168.279L213.702 87.5363C214.503 87.1646 215.427 87.1646 216.228 87.5363L390.202 168.279C392.518 169.354 392.518 172.646 390.202 173.721L216.228 254.464Z" fill="#EBE6EF"/>
</svg>
